# Blender v2.79 (sub 0) OBJ File: 'edificio5x5.blend'
# www.blender.org
mtllib edificio5x5.mtl
o Plane
v -4.492608 0.500000 5.000000
v 4.490038 0.500000 5.000000
v -4.492608 0.500000 -5.000000
v 4.490038 0.500000 -5.000000
v -4.492608 0.500000 5.000000
v 4.490038 0.500000 5.000000
v -4.492608 0.500000 -5.000000
v 4.490038 0.500000 -5.000000
v -5.000000 0.500000 5.000000
v 5.000000 0.500000 5.000000
v -5.000000 0.500000 -5.000000
v 5.000000 0.500000 -5.000000
v -4.492608 10.000000 -5.000000
v -4.492608 10.000000 5.000000
v 4.490038 10.000000 5.000000
v 4.490038 10.000000 -5.000000
vt 0.652957 0.988010
vt 0.346955 0.988010
vt 0.346955 0.664384
vt 0.652957 0.664384
vt 0.346955 0.000099
vt 0.652957 0.000099
vt 0.652957 0.323725
vt 0.346955 0.323725
vt 0.976583 0.323725
vt 0.976583 0.664384
vt 0.982528 0.323725
vt 0.982528 0.664384
vt 0.023330 0.323725
vt 0.023330 0.664384
vt 0.017384 0.664384
vt 0.017384 0.323725
vt 0.999900 0.323725
vt 0.999901 0.664384
vt 0.000100 0.664384
vt 0.000099 0.323725
vn 0.0000 0.0000 -1.0000
vn 0.0000 0.0000 1.0000
vn 1.0000 0.0000 0.0000
vn 0.0000 1.0000 0.0000
vn -1.0000 0.0000 0.0000
usemtl calle01
s off
f 4/1/1 3/2/1 13/3/1 16/4/1
f 1/5/2 2/6/2 15/7/2 14/8/2
usemtl vereda01
f 2/9/3 4/10/3 16/4/3 15/7/3
f 4/10/2 2/9/2 6/11/2 8/12/2
f 1/13/2 3/14/2 7/15/2 5/16/2
f 8/12/4 6/11/4 10/17/4 12/18/4
f 5/16/4 7/15/4 11/19/4 9/20/4
f 14/8/4 15/7/4 16/4/4 13/3/4
f 3/14/5 1/13/5 14/8/5 13/3/5
