# Blender v2.79 (sub 0) OBJ File: 'Tank5x5_v2.blend'
# www.blender.org
mtllib Tank5x5.mtl
o Cube
v -1.273790 0.100000 1.125000
v -0.874297 1.687500 1.125000
v -1.165831 0.100000 -1.125000
v -0.874297 1.687500 -1.125000
v 1.166436 0.100000 1.125000
v 0.874903 1.687500 1.125000
v 1.166436 0.100000 -1.125000
v 0.874903 1.687500 -1.125000
v -1.165831 1.125000 1.500000
v -1.165831 1.125000 -1.500000
v 1.166436 1.125000 -1.500000
v 1.166436 1.125000 1.500000
v -1.187853 0.544890 -1.389402
v -1.186248 0.405863 -1.252317
v 1.143711 0.520770 -1.459029
v 1.145315 0.381743 -1.321944
v 1.194593 0.750523 1.280575
v 1.191572 0.590609 1.168605
v -1.139991 0.614729 1.238232
v -1.136970 0.774643 1.350202
v -1.684405 0.548910 -1.377797
v -1.682800 0.409883 -1.240713
v 1.594989 0.516750 -1.470633
v 1.596593 0.377723 -1.333549
v 1.645871 0.746503 1.268971
v 1.642850 0.586589 1.157000
v -1.636543 0.618749 1.249836
v -1.633523 0.778663 1.361807
v -0.447795 1.777349 0.576389
v -0.447795 1.777349 -0.576389
v 0.448400 1.777349 -0.576389
v 0.448400 1.777349 0.576389
v -0.447795 2.213503 0.576389
v -0.447795 2.213503 -0.576389
v 0.448400 2.213503 -0.576389
v 0.448400 2.213503 0.576389
v 0.104159 1.896022 0.760583
v -0.103553 1.896022 0.760583
v 0.104159 2.094831 0.760583
v -0.103553 2.094831 0.760583
v 0.104159 2.022104 2.221852
v -0.103553 2.022104 2.221852
v 0.104159 2.220913 2.221852
v -0.103553 2.220913 2.221852
v -1.623455 0.004610 -1.007377
v -1.623455 0.004610 1.017623
v -1.641830 0.399710 -1.121963
v 1.560012 0.368783 -1.199050
v 1.579020 -0.004610 -1.021801
v 1.579020 -0.004610 1.003200
v 1.601643 0.556762 1.042444
v -1.600199 0.587689 1.119531
v -1.219810 0.100000 0.365902
v -0.874297 1.687500 0.000000
v 1.166436 0.100000 0.365902
v 0.874903 1.687500 0.000000
v 1.166436 1.125000 0.365902
v -1.165831 1.125000 0.365902
v -1.163119 0.802827 0.365902
v -1.162411 0.952297 0.365902
v 1.168444 0.778707 0.365902
v 1.169152 0.928178 0.365902
v -1.659672 0.806847 0.365902
v -1.658964 0.956318 0.365902
v 1.619722 0.774687 0.365902
v 1.620430 0.924158 0.365902
v -0.600000 1.777349 0.000000
v 0.600000 1.777349 0.000000
v -0.447795 2.285046 0.000000
v 0.448400 2.285046 0.000000
v -1.623455 0.004610 0.365902
v 1.579020 -0.004610 0.365902
v -1.621015 0.786231 0.365902
v 1.580827 0.755304 0.365902
vn -0.8878 0.4602 0.0000
vn 0.0000 0.5547 -0.8321
vn 0.8878 0.4602 0.0000
vn 0.0000 0.5547 0.8321
vn 0.0000 -1.0000 0.0000
vn 0.2329 0.9723 -0.0207
vn 0.0110 -0.4532 0.8914
vn 0.9984 0.0568 -0.0075
vn -0.0155 -0.1264 -0.9919
vn -0.9997 0.0253 0.0042
vn 0.1052 0.9629 0.2486
vn -0.0246 -0.7020 -0.7117
vn -0.0156 -0.4839 -0.8750
vn -0.0285 -0.7020 -0.7116
vn -0.2132 -0.3292 -0.9199
vn 0.0159 -0.5737 0.8189
vn 0.0136 -0.1562 0.9876
vn 0.0185 -0.5737 0.8189
vn -0.9999 0.0034 0.0137
vn 0.9996 -0.0016 -0.0290
vn -0.0057 -0.9736 0.2283
vn -0.0223 -0.7021 -0.7118
vn -0.0104 -0.9778 -0.2092
vn 0.0112 0.9814 0.1915
vn 0.0052 0.9739 -0.2269
vn 0.0145 -0.5737 0.8189
vn 0.9779 0.1571 -0.1383
vn -0.2330 0.9723 0.0208
vn 0.0000 0.9869 0.1616
vn 0.0000 0.9869 -0.1616
vn 0.0000 0.9924 0.1232
vn -0.9777 0.1577 0.1389
vn 0.4718 0.0000 0.8817
vn 0.0000 0.0000 -1.0000
vn 0.0000 0.9963 -0.0860
vn 0.0000 0.8406 0.5416
vn 0.0000 -0.8406 0.5416
vn -0.4718 0.0000 0.8817
vn 0.0000 0.0000 1.0000
vn 1.0000 0.0000 0.0000
vn 0.0000 -0.9963 0.0860
vn -1.0000 0.0000 0.0000
vn -0.9999 -0.0127 0.0090
vn 0.9997 -0.0179 -0.0185
vn -0.0588 0.9681 -0.2434
vn 0.1668 -0.4813 -0.8605
vn -0.2442 -0.1527 0.9576
vn 0.2442 -0.9697 0.0093
vn 0.2739 -0.0879 0.9577
vn -0.2458 -0.9693 0.0000
vn 0.2168 -0.9762 0.0041
vn -0.0762 0.9696 0.2326
vn 0.9999 0.0138 -0.0089
vn -0.9997 0.0175 0.0173
vn -0.9777 0.1577 -0.1389
vn 0.0000 0.9924 -0.1232
vn -0.2330 0.9723 -0.0208
vn 0.9779 0.1571 0.1383
vn 0.0100 0.9843 0.1764
vn 0.0059 0.9761 -0.2173
vn -0.0051 -0.9710 0.2391
vn -0.0116 -0.9733 -0.2294
vn 0.9999 -0.0031 -0.0130
vn -0.9997 0.0025 0.0263
vn 0.0774 0.9690 -0.2345
vn -0.9980 -0.0635 0.0067
vn 0.9997 -0.0252 -0.0041
vn 0.2329 0.9723 0.0207
usemtl Material.Tank.Green
s off
f 58//1 54//1 4//1 10//1
f 10//2 4//2 8//2 11//2
f 57//3 56//3 6//3 12//3
f 12//4 6//4 2//4 9//4
f 53//5 55//5 5//5 1//5
f 56//6 8//6 31//6 68//6
f 17//7 12//7 9//7 20//7
f 62//8 57//8 12//8 17//8
f 13//9 10//9 11//9 15//9
f 60//10 58//10 10//10 13//10
f 61//11 18//11 51//11 74//11
f 16//12 15//12 23//12 24//12
f 3//13 14//13 16//13 7//13
f 14//14 13//14 15//14 16//14
f 14//15 3//15 45//15 47//15
f 17//16 18//16 26//16 25//16
f 5//17 18//17 19//17 1//17
f 18//18 17//18 20//18 19//18
f 63//19 64//19 21//19 22//19
f 65//20 66//20 25//20 26//20
f 61//21 16//21 24//21 65//21
f 13//22 14//22 22//22 21//22
f 59//23 19//23 27//23 63//23
f 62//24 17//24 25//24 66//24
f 60//25 13//25 21//25 64//25
f 19//26 20//26 28//26 27//26
f 68//27 31//27 35//27 70//27
f 54//28 2//28 29//28 67//28
f 2//29 6//29 32//29 29//29
f 8//30 4//30 30//30 31//30
f 70//31 69//31 33//31 36//31
f 67//32 29//32 33//32 69//32
f 32//33 36//33 39//33 37//33
f 31//34 30//34 34//34 35//34
f 39//35 40//35 44//35 43//35
f 36//36 33//36 40//36 39//36
f 29//37 32//37 37//37 38//37
f 33//38 29//38 38//38 40//38
f 42//39 41//39 43//39 44//39
f 37//40 39//40 43//40 41//40
f 38//41 37//41 41//41 42//41
f 40//42 38//42 42//42 44//42
f 71//43 73//43 47//43 45//43
f 72//44 74//44 51//44 50//44
f 59//45 14//45 47//45 73//45
f 7//46 16//46 48//46 49//46
f 1//47 19//47 52//47 46//47
f 53//48 1//48 46//48 71//48
f 18//49 5//49 50//49 51//49
f 55//50 7//50 49//50 72//50
f 5//50 55//50 72//50 50//50
f 3//51 53//51 71//51 45//51
f 19//52 59//52 73//52 52//52
f 49//53 48//53 74//53 72//53
f 46//54 52//54 73//54 71//54
f 30//55 67//55 69//55 34//55
f 35//56 34//56 69//56 70//56
f 4//57 54//57 67//57 30//57
f 32//58 68//58 70//58 36//58
f 20//59 60//59 64//59 28//59
f 15//60 62//60 66//60 23//60
f 14//61 59//61 63//61 22//61
f 18//62 61//62 65//62 26//62
f 24//63 23//63 66//63 65//63
f 27//64 28//64 64//64 63//64
f 16//65 61//65 74//65 48//65
f 20//66 9//66 58//66 60//66
f 15//67 11//67 57//67 62//67
f 6//68 56//68 68//68 32//68
f 3//5 7//5 55//5 53//5
f 11//3 8//3 56//3 57//3
f 9//1 2//1 54//1 58//1
